<svg width="32" height="32" viewBox="0 0 32 32" fill="none" xmlns="http://www.w3.org/2000/svg">
<g clip-path="url(#clip0_1_575)">
<g filter="url(#filter0_d_1_575)">
<path d="M22.0002 8H18.0002C17.2638 8 16.6668 8.59696 16.6668 9.33333V13.3333H22.0002C22.1518 13.33 22.2956 13.4005 22.3858 13.5225C22.4759 13.6445 22.5012 13.8027 22.4535 13.9467L21.4668 16.88C21.3759 17.1492 21.1243 17.3312 20.8402 17.3333H16.6668V27.3333C16.6668 27.7015 16.3683 28 16.0002 28H12.6668C12.2986 28 12.0002 27.7015 12.0002 27.3333V17.3333H10.0002C9.63198 17.3333 9.3335 17.0348 9.3335 16.6667V14C9.3335 13.6319 9.63198 13.3333 10.0002 13.3333H12.0002V9.33333C12.0002 6.38781 14.388 4 17.3335 4H22.0002C22.3683 4 22.6668 4.29848 22.6668 4.66667V7.33333C22.6668 7.70152 22.3683 8 22.0002 8Z" fill="#FF0008"/>
</g>
</g>
<defs>
<filter id="filter0_d_1_575" x="3.3335" y="-2" width="25.3335" height="36" filterUnits="userSpaceOnUse" color-interpolation-filters="sRGB">
<feFlood flood-opacity="0" result="BackgroundImageFix"/>
<feColorMatrix in="SourceAlpha" type="matrix" values="0 0 0 0 0 0 0 0 0 0 0 0 0 0 0 0 0 0 127 0" result="hardAlpha"/>
<feOffset/>
<feGaussianBlur stdDeviation="3"/>
<feComposite in2="hardAlpha" operator="out"/>
<feColorMatrix type="matrix" values="0 0 0 0 1 0 0 0 0 0 0 0 0 0 0.0330577 0 0 0 1 0"/>
<feBlend mode="normal" in2="BackgroundImageFix" result="effect1_dropShadow_1_575"/>
<feBlend mode="normal" in="SourceGraphic" in2="effect1_dropShadow_1_575" result="shape"/>
</filter>
<clipPath id="clip0_1_575">
<rect width="32" height="32" fill="white"/>
</clipPath>
</defs>
</svg>
